<?xml version="1.0" standalone="no"?>
<!DOCTYPE svg PUBLIC "-//W3C//DTD SVG 20010904//EN"
 "http://www.w3.org/TR/2001/REC-SVG-20010904/DTD/svg10.dtd">
<svg version="1.0" xmlns="http://www.w3.org/2000/svg"
 width="966.000000pt" height="691.000000pt" viewBox="0 0 966.000000 691.000000"
 preserveAspectRatio="xMidYMid meet">

<g transform="translate(0.000000,691.000000) scale(0.100000,-0.100000)"
fill="#000000" stroke="none">
<path d="M3190 4616 c-136 -24 -233 -56 -356 -116 -204 -99 -364 -239 -483
-420 -53 -81 -131 -244 -131 -275 0 -11 76 -45 100 -45 4 0 15 21 25 48 110
298 375 546 690 645 123 39 198 50 335 50 312 0 590 -112 799 -323 447 -451
387 -1174 -130 -1560 -191 -142 -409 -213 -664 -214 -308 -1 -581 109 -792
320 -67 67 -183 228 -198 274 -4 11 -13 20 -22 20 -9 0 -52 31 -97 68 -60 51
-91 70 -121 75 -22 4 -184 0 -360 -8 -176 -8 -529 -24 -785 -35 -256 -11 -503
-23 -550 -27 -77 -6 -81 -7 -45 -14 22 -4 420 -22 885 -39 963 -35 1017 -38
994 -55 -15 -11 -13 -19 20 -81 107 -204 327 -407 550 -509 300 -137 627 -152
936 -43 312 110 557 330 696 623 69 145 96 260 101 440 4 114 1 171 -11 238
-44 232 -156 446 -320 612 -170 171 -383 286 -631 341 -98 21 -341 27 -435 10z"/>
<path d="M3341 4418 c0 -3 -37 -226 -81 -494 l-80 -488 61 -62 c36 -37 67 -60
76 -57 7 3 19 1 26 -5 6 -5 29 -12 50 -16 33 -6 882 56 967 71 l35 6 -30 8
c-16 5 -219 52 -450 105 -231 53 -423 99 -427 103 -3 3 -20 161 -37 351 -38
424 -41 451 -51 445 -4 -3 -11 -34 -15 -70 -7 -71 -25 -79 -26 -12 0 38 -15
132 -18 115z"/>
<path d="M3360 4411 c0 -4 36 -11 79 -15 412 -34 750 -338 862 -773 10 -42 19
-88 20 -102 0 -14 5 -35 10 -46 15 -33 -1 90 -23 174 -45 173 -132 330 -255
461 -137 146 -285 232 -481 281 -114 28 -212 38 -212 20z"/>
<path d="M5285 3851 l-70 -182 -35 5 c-19 3 -68 6 -107 6 l-73 0 0 170 0 170
-60 0 -60 0 0 -204 0 -204 33 -6 c19 -3 117 -6 220 -5 l186 1 17 49 18 49 64
0 63 0 19 -44 c16 -35 26 -45 51 -50 51 -10 89 -7 89 7 0 16 -149 389 -160
400 -4 5 -34 11 -67 14 l-59 5 -69 -181z m145 -6 c25 -67 24 -75 -9 -75 -17 0
-31 5 -31 11 0 16 22 89 27 89 2 0 8 -11 13 -25z"/>
<path d="M5580 3996 c0 -30 4 -34 31 -40 17 -3 47 -6 65 -6 l34 0 0 -169 0
-170 45 -7 c77 -11 75 -16 75 176 l0 170 60 0 60 0 0 34 c0 30 -4 34 -31 40
-17 3 -101 6 -185 6 l-154 0 0 -34z"/>
<path d="M5970 3821 l0 -210 53 -6 c28 -3 108 -5 177 -3 l125 3 3 31 c3 28 0
32 -29 38 -17 3 -69 6 -115 6 l-84 0 0 55 0 54 103 3 102 3 0 30 0 30 -100 5
-100 5 -3 43 -3 42 110 0 111 0 0 34 c0 30 -4 34 -31 40 -17 3 -96 6 -175 6
l-144 0 0 -209z"/>
<path d="M6360 3990 c0 -28 4 -40 14 -40 25 0 27 -16 6 -43 -26 -32 -26 -51 0
-44 10 3 21 0 23 -6 6 -18 56 20 67 49 6 14 10 45 10 68 0 41 -2 44 -31 50
-17 3 -44 6 -60 6 -27 0 -29 -3 -29 -40z"/>
<path d="M1700 3719 c-443 -12 -615 -21 -560 -30 25 -4 214 -14 420 -23 206
-9 432 -19 501 -22 l125 -7 59 39 58 39 -39 7 c-47 8 -170 8 -564 -3z"/>
<path d="M1545 3529 c-291 -9 -548 -18 -570 -19 l-40 -2 50 -9 c27 -4 182 -13
345 -18 162 -6 415 -16 562 -22 l266 -11 63 38 63 39 -37 3 c-21 2 -35 7 -32
13 7 11 5 11 -670 -12z"/>
<path d="M1625 3370 c-818 -37 -910 -42 -914 -46 -2 -2 8 -4 22 -4 15 0 35 -4
45 -9 9 -6 274 -24 587 -41 314 -17 606 -34 650 -37 l81 -6 64 74 63 74 -39 7
c-52 9 -105 8 -559 -12z"/>
<path d="M4893 3323 c-23 -4 -23 -5 -23 -207 l0 -203 31 -7 c17 -3 44 -6 60
-6 l28 0 3 83 3 82 19 -77 c21 -83 27 -88 110 -88 32 0 33 1 52 78 l19 77 3
-71 c3 -71 3 -72 34 -78 17 -3 43 -6 59 -6 l29 0 0 205 0 204 -39 12 c-23 7
-58 9 -85 5 -51 -8 -44 3 -86 -156 l-16 -65 -23 85 c-12 47 -26 94 -31 106
-12 29 -76 41 -147 27z"/>
<path d="M5454 3311 c-77 -35 -108 -101 -102 -215 2 -58 9 -81 30 -113 33 -50
98 -83 177 -90 138 -13 230 71 231 210 0 69 -19 120 -63 165 -57 59 -191 80
-273 43z m180 -92 c15 -17 27 -44 27 -62 5 -100 -14 -149 -66 -174 -61 -29
-109 11 -121 100 -17 124 92 217 160 136z"/>
<path d="M5813 3323 c-17 -3 -23 -11 -23 -32 0 -22 7 -29 33 -39 18 -7 45 -12
60 -12 l27 0 0 -164 0 -163 31 -7 c17 -3 47 -6 65 -6 l34 0 0 170 0 169 58 3
c56 3 57 3 60 36 3 27 -1 34 -23 42 -25 10 -276 12 -322 3z"/>
<path d="M6193 3323 c-23 -4 -23 -5 -23 -208 0 -229 -5 -215 83 -215 l37 0 0
205 0 205 -26 10 c-26 10 -32 10 -71 3z"/>
<path d="M6322 3323 c-13 -2 -22 -8 -20 -12 2 -4 35 -96 73 -204 77 -216 70
-207 165 -207 32 0 39 4 49 28 24 60 131 366 131 374 0 16 -51 28 -89 22 l-38
-6 -38 -120 c-20 -66 -41 -116 -45 -111 -4 4 -22 53 -40 108 -18 55 -37 105
-44 112 -13 14 -71 23 -104 16z"/>
</g>
</svg>
