<svg version="1.1" viewBox="0.0 0.0 960.0 720.0" fill="none" stroke="none" stroke-linecap="square" stroke-miterlimit="10" xmlns:xlink="http://www.w3.org/1999/xlink" xmlns="http://www.w3.org/2000/svg"><clipPath id="p.0"><path d="m0 0l960.0 0l0 720.0l-960.0 0l0 -720.0z" clip-rule="nonzero"/></clipPath><g clip-path="url(#p.0)"><path fill="#000000" fill-opacity="0.0" d="m0 0l960.0 0l0 720.0l-960.0 0z" fill-rule="evenodd"/><path fill="#ff0000" d="m392.51968 468.93872l42.520782 -36.94403l256.3377 58.732788l-259.9827 21.78717z" fill-rule="evenodd"/><path stroke="#000000" stroke-width="1.0" stroke-linejoin="round" stroke-linecap="butt" d="m392.51968 468.93872l42.520782 -36.94403l256.3377 58.732788l-259.9827 21.78717z" fill-rule="evenodd"/><path fill="#ff0000" d="m423.70334 509.54205l-31.183655 -44.61197l42.982544 -368.7936l23.597748 376.22977z" fill-rule="evenodd"/><path stroke="#000000" stroke-width="1.0" stroke-linejoin="round" stroke-linecap="butt" d="m423.70334 509.54205l-31.183655 -44.61197l42.982544 -368.7936l23.597748 376.22977z" fill-rule="evenodd"/><path fill="#ff0000" d="m141.34576 289.7333l0 0c46.89273 -146.53105 197.26508 -238.20238 354.31055 -215.99796c157.04547 22.204414 273.93774 151.66388 275.42407 305.03516c1.4863281 153.37128 -112.876465 284.92358 -269.46408 309.96637c-156.58759 25.042786 -308.71017 -63.89099 -358.4345 -209.54764l4.869705 -1.5524292c48.957047 143.24814 198.66614 230.69681 352.75723 206.05399c154.09106 -24.642761 266.62482 -154.03027 265.1615 -304.87375c-1.4633179 -150.84348 -116.48743 -278.17178 -271.02954 -300.02176c-154.54211 -21.84996 -302.5284 68.29258 -348.6978 212.40152z" fill-rule="evenodd"/><path stroke="#000000" stroke-width="1.0" stroke-linejoin="round" stroke-linecap="butt" d="m141.34576 289.7333l0 0c46.89273 -146.53105 197.26508 -238.20238 354.31055 -215.99796c157.04547 22.204414 273.93774 151.66388 275.42407 305.03516c1.4863281 153.37128 -112.876465 284.92358 -269.46408 309.96637c-156.58759 25.042786 -308.71017 -63.89099 -358.4345 -209.54764l4.869705 -1.5524292c48.957047 143.24814 198.66614 230.69681 352.75723 206.05399c154.09106 -24.642761 266.62482 -154.03027 265.1615 -304.87375c-1.4633179 -150.84348 -116.48743 -278.17178 -271.02954 -300.02176c-154.54211 -21.84996 -302.5284 68.29258 -348.6978 212.40152z" fill-rule="evenodd"/><path fill="#ff0000" d="m465.99542 91.367134l0 0c100.660706 -0.97766876 194.12463 53.842873 244.96661 143.68329c50.84198 89.84044 51.280823 200.95082 1.1501465 291.21765l-13.277466 -7.8843994c47.287292 -85.47342 46.80945 -190.62845 -1.2525635 -275.63684c-48.06195 -85.00836 -136.35846 -136.8706 -231.4465 -135.94351z" fill-rule="evenodd"/><path stroke="#000000" stroke-width="1.0" stroke-linejoin="round" stroke-linecap="butt" d="m465.99542 91.367134l0 0c100.660706 -0.97766876 194.12463 53.842873 244.96661 143.68329c50.84198 89.84044 51.280823 200.95082 1.1501465 291.21765l-13.277466 -7.8843994c47.287292 -85.47342 46.80945 -190.62845 -1.2525635 -275.63684c-48.06195 -85.00836 -136.35846 -136.8706 -231.4465 -135.94351z" fill-rule="evenodd"/><path fill="#ff0000" d="m298.8478 295.74277l-193.55647 6.6226807l176.92097 7.570587z" fill-rule="evenodd"/><path stroke="#000000" stroke-width="1.0" stroke-linejoin="round" stroke-linecap="butt" d="m298.8478 295.74277l-193.55647 6.6226807l176.92097 7.570587z" fill-rule="evenodd"/><path fill="#ff0000" d="m270.96216 336.7743l-184.26117 6.62265l168.42456 7.570587z" fill-rule="evenodd"/><path stroke="#000000" stroke-width="1.0" stroke-linejoin="round" stroke-linecap="butt" d="m270.96216 336.7743l-184.26117 6.62265l168.42456 7.570587z" fill-rule="evenodd"/><path fill="#ff0000" d="m230.71236 386.83728l-184.26117 6.62265l168.42455 7.570587z" fill-rule="evenodd"/><path stroke="#000000" stroke-width="1.0" stroke-linejoin="round" stroke-linecap="butt" d="m230.71236 386.83728l-184.26117 6.62265l168.42455 7.570587z" fill-rule="evenodd"/><path fill="#000000" fill-opacity="0.0" d="m412.89502 315.43307l41.82675 0l0 132.50394l-41.82675 0z" fill-rule="evenodd"/><path fill="#000000" d="m423.28564 342.35306l0 -13.359375l2.65625 0l3.15625 9.453125q0.4375 1.328125 0.640625 1.984375q0.234375 -0.734375 0.703125 -2.140625l3.203125 -9.296875l2.375 0l0 13.359375l-1.703125 0l0 -11.171875l-3.875 11.171875l-1.59375 0l-3.859375 -11.375l0 11.375l-1.703125 0z" fill-rule="nonzero"/><path fill="#000000" d="m422.52002 359.9093q0 -2.6875 1.484375 -3.96875q1.25 -1.078125 3.046875 -1.078125q2.0 0 3.265625 1.3125q1.265625 1.296875 1.265625 3.609375q0 1.859375 -0.5625 2.9375q-0.5625 1.0625 -1.640625 1.65625q-1.0625 0.59375 -2.328125 0.59375q-2.03125 0 -3.28125 -1.296875q-1.25 -1.3125 -1.25 -3.765625zm1.6875 0q0 1.859375 0.796875 2.796875q0.8125 0.921875 2.046875 0.921875q1.21875 0 2.03125 -0.921875q0.8125 -0.9375 0.8125 -2.84375q0 -1.796875 -0.8125 -2.71875q-0.8125 -0.921875 -2.03125 -0.921875q-1.234375 0 -2.046875 0.921875q-0.796875 0.90625 -0.796875 2.765625z" fill-rule="nonzero"/><path fill="#000000" d="m426.70752 385.68433l0.234375 1.453125q-0.6875 0.140625 -1.234375 0.140625q-0.890625 0 -1.390625 -0.28125q-0.484375 -0.28125 -0.6875 -0.734375q-0.203125 -0.46875 -0.203125 -1.9375l0 -5.578125l-1.203125 0l0 -1.265625l1.203125 0l0 -2.390625l1.625 -0.984375l0 3.375l1.65625 0l0 1.265625l-1.65625 0l0 5.671875q0 0.6875 0.078125 0.890625q0.09375 0.203125 0.28125 0.328125q0.203125 0.109375 0.578125 0.109375q0.265625 0 0.71875 -0.0625z" fill-rule="nonzero"/><path fill="#000000" d="m423.1294 398.08432l0 -1.890625l1.640625 0l0 1.890625l-1.640625 0zm0 11.46875l0 -9.671875l1.640625 0l0 9.671875l-1.640625 0z" fill-rule="nonzero"/><path fill="#000000" d="m425.8169 431.95306l-3.6875 -9.671875l1.734375 0l2.078125 5.796875q0.328125 0.9375 0.625 1.9375q0.203125 -0.765625 0.609375 -1.828125l2.140625 -5.90625l1.6875 0l-3.65625 9.671875l-1.53125 0z" fill-rule="nonzero"/><path fill="#000000" fill-opacity="0.0" d="m500.91602 457.89502l66.58264 0l0 46.86615l-66.58264 0z" fill-rule="evenodd"/><path fill="#000000" d="m511.57227 488.655l0 -16.21875l2.15625 0l0 14.3125l7.984375 0l0 1.90625l-10.140625 0zm20.100342 -1.453125q-1.109375 0.9375 -2.140625 1.328125q-1.015625 0.390625 -2.1875 0.390625q-1.9375 0 -2.984375 -0.9375q-1.03125 -0.953125 -1.03125 -2.421875q0 -0.859375 0.390625 -1.578125q0.40625 -0.71875 1.03125 -1.140625q0.640625 -0.4375 1.4375 -0.65625q0.59375 -0.15625 1.765625 -0.296875q2.421875 -0.296875 3.5625 -0.6875q0 -0.40625 0 -0.515625q0 -1.21875 -0.5625 -1.71875q-0.765625 -0.671875 -2.265625 -0.671875q-1.40625 0 -2.078125 0.5q-0.671875 0.484375 -0.984375 1.734375l-1.953125 -0.265625q0.265625 -1.25 0.875 -2.015625q0.609375 -0.78125 1.75 -1.1875q1.15625 -0.421875 2.671875 -0.421875q1.515625 0 2.453125 0.359375q0.9375 0.34375 1.375 0.890625q0.453125 0.53125 0.625 1.34375q0.09375 0.515625 0.09375 1.84375l0 2.65625q0 2.78125 0.125 3.515625q0.140625 0.734375 0.515625 1.40625l-2.078125 0q-0.3125 -0.625 -0.40625 -1.453125zm-0.15625 -4.4375q-1.09375 0.4375 -3.265625 0.75q-1.21875 0.171875 -1.734375 0.390625q-0.5 0.21875 -0.78125 0.65625q-0.28125 0.421875 -0.28125 0.9375q0 0.796875 0.609375 1.328125q0.609375 0.53125 1.765625 0.53125q1.140625 0 2.03125 -0.5q0.90625 -0.5 1.328125 -1.375q0.328125 -0.671875 0.328125 -2.0l0 -0.71875zm9.444031 4.109375l0.28125 1.765625q-0.84375 0.171875 -1.5 0.171875q-1.078125 0 -1.6875 -0.34375q-0.59375 -0.34375 -0.84375 -0.890625q-0.234375 -0.5625 -0.234375 -2.359375l0 -6.765625l-1.46875 0l0 -1.546875l1.46875 0l0 -2.90625l1.984375 -1.203125l0 4.109375l2.0 0l0 1.546875l-2.0 0l0 6.875q0 0.84375 0.09375 1.09375q0.109375 0.25 0.34375 0.390625q0.25 0.140625 0.6875 0.140625q0.328125 0 0.875 -0.078125zm9.982178 -2.0l2.0625 0.25q-0.484375 1.8125 -1.8125 2.8125q-1.3125 0.984375 -3.359375 0.984375q-2.578125 0 -4.09375 -1.578125q-1.5 -1.59375 -1.5 -4.46875q0 -2.953125 1.53125 -4.59375q1.53125 -1.640625 3.953125 -1.640625q2.359375 0 3.84375 1.609375q1.5 1.59375 1.5 4.515625q0 0.171875 0 0.53125l-8.765625 0q0.109375 1.9375 1.09375 2.96875q0.984375 1.015625 2.453125 1.015625q1.09375 0 1.859375 -0.5625q0.78125 -0.578125 1.234375 -1.84375zm-6.53125 -3.21875l6.5625 0q-0.140625 -1.484375 -0.75 -2.21875q-0.953125 -1.15625 -2.46875 -1.15625q-1.375 0 -2.3125 0.921875q-0.9375 0.90625 -1.03125 2.453125z" fill-rule="nonzero"/><path fill="#ff0000" d="m200.26091 436.90027l-184.26117 6.62265l168.42456 7.570587z" fill-rule="evenodd"/><path stroke="#000000" stroke-width="1.0" stroke-linejoin="round" stroke-linecap="butt" d="m200.26091 436.90027l-184.26117 6.62265l168.42456 7.570587z" fill-rule="evenodd"/></g></svg>