<?xml version="1.0" standalone="no"?>
<!DOCTYPE svg PUBLIC "-//W3C//DTD SVG 20010904//EN"
 "http://www.w3.org/TR/2001/REC-SVG-20010904/DTD/svg10.dtd">
<svg version="1.0" xmlns="http://www.w3.org/2000/svg"
 width="966.000000pt" height="691.000000pt" viewBox="0 0 966.000000 691.000000"
 preserveAspectRatio="xMidYMid meet">

<g transform="translate(0.000000,691.000000) scale(0.100000,-0.100000)"
fill="#000000" stroke="none">
<path d="M3338 4623 c23 -2 61 -2 85 0 23 2 4 4 -43 4 -47 0 -66 -2 -42 -4z"/>
<path d="M3135 4603 c-167 -35 -339 -111 -476 -210 -162 -116 -330 -321 -398
-488 -49 -119 -49 -112 10 -129 29 -9 53 -15 55 -13 1 1 16 36 33 78 144 347
490 609 873 658 50 7 55 9 23 10 -52 1 -192 -30 -275 -62 -275 -104 -490 -301
-609 -559 -21 -46 -41 -90 -44 -100 -5 -14 -10 -15 -49 -3 -52 15 -52 17 7
143 115 243 302 434 545 557 129 65 292 113 430 128 29 3 28 4 -10 5 -25 0
-76 -6 -115 -15z"/>
<path d="M3505 4613 c293 -40 519 -143 711 -325 154 -146 276 -350 331 -554
24 -90 27 -116 27 -279 0 -163 -3 -189 -27 -278 -112 -418 -435 -729 -876
-844 -119 -31 -358 -43 -478 -23 -277 44 -504 159 -691 349 -88 89 -212 270
-212 309 0 4 15 16 34 24 l33 16 59 -96 c199 -324 575 -526 968 -520 l111 1
-150 8 c-228 11 -395 61 -576 171 -121 73 -288 244 -353 361 -26 48 -50 87
-53 87 -4 0 -86 -40 -91 -45 -2 -2 13 -34 34 -71 175 -314 492 -536 852 -599
111 -20 314 -19 433 1 575 97 999 584 999 1149 0 474 -294 901 -746 1082 -107
43 -222 72 -304 77 -36 2 -51 2 -35 -1z"/>
<path d="M3340 4514 c19 -2 82 -8 140 -14 394 -38 721 -258 885 -595 81 -167
100 -254 99 -455 -1 -135 -5 -179 -22 -243 -84 -308 -305 -573 -584 -701 -85
-40 -188 -72 -290 -92 -69 -13 -70 -14 -17 -9 135 12 336 90 473 185 86 59
216 191 273 275 289 430 231 989 -138 1341 -204 193 -455 297 -746 308 -60 2
-92 2 -73 0z"/>
<path d="M3337 4400 c-3 -14 -8 -41 -11 -60 -2 -19 -37 -233 -77 -475 l-72
-439 64 -58 c35 -32 70 -56 77 -53 7 2 21 0 30 -6 13 -8 80 -6 252 10 129 12
325 28 435 36 110 9 207 17 215 19 46 11 -101 2 -474 -29 -230 -19 -422 -32
-427 -29 -16 10 -9 20 41 58 l50 38 -6 84 c-5 63 -4 84 5 84 25 0 807 -181
823 -190 10 -6 30 -10 45 -9 25 0 26 1 8 9 -11 5 -213 53 -450 106 -236 53
-433 100 -436 103 -4 3 -21 173 -38 376 -18 204 -35 388 -40 410 -7 36 -8 37
-14 15z m53 -534 c38 -425 39 -450 22 -462 -9 -6 -37 -28 -62 -48 l-45 -36
-57 58 -58 57 70 430 c72 443 81 491 86 465 2 -8 22 -217 44 -464z"/>
<path d="M3459 4394 c244 -31 423 -122 587 -298 131 -139 224 -321 261 -505
22 -114 34 -148 27 -81 -13 141 -84 331 -169 461 -103 155 -278 301 -444 370
-90 38 -235 69 -311 68 -46 -1 -37 -4 49 -15z"/>
<path d="M2145 3720 c44 -3 84 -2 90 2 5 4 -31 7 -80 6 l-90 -1 80 -7z"/>
<path d="M1773 3713 c48 -2 126 -2 175 0 48 1 8 3 -88 3 -96 0 -136 -2 -87 -3z"/>
<path d="M1205 3701 l-110 -6 195 -8 c107 -5 222 -7 255 -5 42 3 24 5 -60 8
l-120 4 145 6 145 6 -170 0 c-93 0 -219 -2 -280 -5z"/>
<path d="M2171 3692 c-16 -11 -54 -19 -110 -23 l-86 -6 82 -1 c67 -2 88 2 117
19 20 12 36 23 36 25 0 8 -16 3 -39 -14z"/>
<path d="M1718 3673 c46 -2 118 -2 160 0 42 1 5 3 -83 3 -88 0 -123 -2 -77 -3z"/>
<path d="M1615 3534 c-214 -7 -455 -16 -535 -20 l-145 -8 115 -7 c63 -4 277
-9 475 -12 249 -3 297 -2 155 3 -113 4 -266 9 -340 10 l-135 3 130 7 c72 4
264 11 428 15 163 4 297 11 297 16 0 5 -12 8 -27 8 -16 -1 -203 -8 -418 -15z"/>
<path d="M2135 3540 c39 -3 74 -3 80 2 5 4 -27 7 -70 6 l-80 -1 70 -7z"/>
<path d="M2145 3507 c-24 -18 -48 -23 -125 -28 l-95 -5 89 -2 c79 -2 94 1 133
23 23 14 43 28 43 30 0 10 -16 4 -45 -18z"/>
<path d="M1370 3294 c-256 -6 -510 -13 -565 -15 l-100 -3 145 -6 c80 -4 226
-7 325 -7 l180 1 -155 6 c-141 5 -125 6 175 13 182 4 425 10 540 12 l210 6
-40 -23 c-32 -18 -61 -24 -145 -29 l-105 -5 103 -2 c96 -2 106 0 162 28 33 17
60 32 60 35 0 7 -259 4 -790 -11z"/>
<path d="M1498 3253 c57 -2 147 -2 200 0 53 1 7 3 -103 3 -110 0 -154 -2 -97
-3z"/>
<path d="M2072 3161 c51 -5 64 -12 130 -66 l73 -60 -65 -6 -65 -6 80 -1 c91
-2 93 -8 -25 87 -72 59 -76 61 -130 59 l-55 -1 57 -6z"/>
<path d="M1858 3153 c28 -2 76 -2 105 0 28 2 5 3 -53 3 -58 0 -81 -1 -52 -3z"/>
<path d="M1638 3143 c28 -2 76 -2 105 0 28 2 5 3 -53 3 -58 0 -81 -1 -52 -3z"/>
<path d="M1418 3133 c28 -2 76 -2 105 0 28 2 5 3 -53 3 -58 0 -81 -1 -52 -3z"/>
<path d="M875 3115 c-143 -7 -316 -17 -385 -21 l-125 -8 115 -7 c63 -4 243 -9
400 -12 l285 -5 -295 12 c-162 7 -279 14 -260 15 19 2 195 11 390 20 195 10
306 18 245 18 -60 0 -227 -5 -370 -12z"/>
<path d="M1263 3053 c43 -2 110 -2 150 0 40 1 5 3 -78 3 -82 0 -115 -2 -72 -3z"/>
<path d="M1583 3043 c43 -2 110 -2 150 0 40 1 5 3 -78 3 -82 0 -115 -2 -72 -3z"/>
<path d="M1903 3033 c43 -2 110 -2 150 0 40 1 5 3 -78 3 -82 0 -115 -2 -72 -3z"/>
</g>
</svg>
